<svg xmlns="http://www.w3.org/2000/svg" viewBox="0 0 216 186" width="216" height="186" font-family="system-ui, -apple-system, 'Segoe UI', Roboto, sans-serif">
  <defs><marker id="arrow" viewBox="0 0 10 10" refX="8" refY="5" markerWidth="7" markerHeight="7" orient="auto-start-reverse"><path d="M0,0 L10,5 L0,10 z" fill="#0f766e"/></marker><marker id="arrowA" viewBox="0 0 10 10" refX="8" refY="5" markerWidth="7" markerHeight="7" orient="auto-start-reverse"><path d="M0,0 L10,5 L0,10 z" fill="#b45309"/></marker></defs>
  <text x="108" y="22" fill="#6b7280" font-size="13" font-weight="600" text-anchor="middle">word = "ABCCED"</text>
  <rect x="16" y="32" width="46" height="46" fill="#fff" stroke="#b9b4a8" stroke-width="1.5"/>
  <rect x="62" y="32" width="46" height="46" fill="#fff" stroke="#b9b4a8" stroke-width="1.5"/>
  <rect x="108" y="32" width="46" height="46" fill="#fff" stroke="#b9b4a8" stroke-width="1.5"/>
  <rect x="154" y="32" width="46" height="46" fill="#fff" stroke="#b9b4a8" stroke-width="1.5"/>
  <rect x="16" y="78" width="46" height="46" fill="#fff" stroke="#b9b4a8" stroke-width="1.5"/>
  <rect x="62" y="78" width="46" height="46" fill="#fff" stroke="#b9b4a8" stroke-width="1.5"/>
  <rect x="108" y="78" width="46" height="46" fill="#fff" stroke="#b9b4a8" stroke-width="1.5"/>
  <rect x="154" y="78" width="46" height="46" fill="#fff" stroke="#b9b4a8" stroke-width="1.5"/>
  <rect x="16" y="124" width="46" height="46" fill="#fff" stroke="#b9b4a8" stroke-width="1.5"/>
  <rect x="62" y="124" width="46" height="46" fill="#fff" stroke="#b9b4a8" stroke-width="1.5"/>
  <rect x="108" y="124" width="46" height="46" fill="#fff" stroke="#b9b4a8" stroke-width="1.5"/>
  <rect x="154" y="124" width="46" height="46" fill="#fff" stroke="#b9b4a8" stroke-width="1.5"/>
  <circle cx="39" cy="55" r="6" fill="#b45309"/>
  <polyline points="39,55 85,55 131,55 131,101 131,147 85,147" fill="none" stroke="#b45309" stroke-width="3" stroke-linejoin="round" opacity="0.85" marker-end="url(#arrowA)"/>
  <text x="39" y="55" fill="#1f2430" stroke="#fff" stroke-width="3" paint-order="stroke" font-size="17" text-anchor="middle" dominant-baseline="central">A</text>
  <text x="85" y="55" fill="#1f2430" stroke="#fff" stroke-width="3" paint-order="stroke" font-size="17" text-anchor="middle" dominant-baseline="central">B</text>
  <text x="131" y="55" fill="#1f2430" stroke="#fff" stroke-width="3" paint-order="stroke" font-size="17" text-anchor="middle" dominant-baseline="central">C</text>
  <text x="177" y="55" fill="#1f2430" stroke="#fff" stroke-width="3" paint-order="stroke" font-size="17" text-anchor="middle" dominant-baseline="central">E</text>
  <text x="39" y="101" fill="#1f2430" stroke="#fff" stroke-width="3" paint-order="stroke" font-size="17" text-anchor="middle" dominant-baseline="central">S</text>
  <text x="85" y="101" fill="#1f2430" stroke="#fff" stroke-width="3" paint-order="stroke" font-size="17" text-anchor="middle" dominant-baseline="central">F</text>
  <text x="131" y="101" fill="#1f2430" stroke="#fff" stroke-width="3" paint-order="stroke" font-size="17" text-anchor="middle" dominant-baseline="central">C</text>
  <text x="177" y="101" fill="#1f2430" stroke="#fff" stroke-width="3" paint-order="stroke" font-size="17" text-anchor="middle" dominant-baseline="central">S</text>
  <text x="39" y="147" fill="#1f2430" stroke="#fff" stroke-width="3" paint-order="stroke" font-size="17" text-anchor="middle" dominant-baseline="central">A</text>
  <text x="85" y="147" fill="#1f2430" stroke="#fff" stroke-width="3" paint-order="stroke" font-size="17" text-anchor="middle" dominant-baseline="central">D</text>
  <text x="131" y="147" fill="#1f2430" stroke="#fff" stroke-width="3" paint-order="stroke" font-size="17" text-anchor="middle" dominant-baseline="central">E</text>
  <text x="177" y="147" fill="#1f2430" stroke="#fff" stroke-width="3" paint-order="stroke" font-size="17" text-anchor="middle" dominant-baseline="central">E</text>
</svg>
