<svg xmlns="http://www.w3.org/2000/svg" viewBox="0 0 496 282" width="496" height="282" font-family="system-ui, -apple-system, 'Segoe UI', Roboto, sans-serif">
  <defs><marker id="arrow" viewBox="0 0 10 10" refX="8" refY="5" markerWidth="7" markerHeight="7" orient="auto-start-reverse"><path d="M0,0 L10,5 L0,10 z" fill="#0f766e"/></marker><marker id="arrowA" viewBox="0 0 10 10" refX="8" refY="5" markerWidth="7" markerHeight="7" orient="auto-start-reverse"><path d="M0,0 L10,5 L0,10 z" fill="#b45309"/></marker></defs>
  <g transform="translate(16,8)"><text x="232" y="16" fill="#6b7280" font-size="13" font-weight="600" text-anchor="middle">LCA(5, 1) = 3</text><line x1="88" y1="108" x2="40" y2="170" stroke="#b9b4a8" stroke-width="2"/><line x1="88" y1="108" x2="184" y2="170" stroke="#b9b4a8" stroke-width="2"/><line x1="184" y1="170" x2="136" y2="232" stroke="#b9b4a8" stroke-width="2"/><line x1="184" y1="170" x2="232" y2="232" stroke="#b9b4a8" stroke-width="2"/><line x1="280" y1="46" x2="88" y2="108" stroke="#b9b4a8" stroke-width="2"/><line x1="280" y1="46" x2="376" y2="108" stroke="#b9b4a8" stroke-width="2"/><line x1="376" y1="108" x2="328" y2="170" stroke="#b9b4a8" stroke-width="2"/><line x1="376" y1="108" x2="424" y2="170" stroke="#b9b4a8" stroke-width="2"/><circle cx="40" cy="170" r="18" fill="#fff" stroke="#1f2430" stroke-width="2"/><text x="40" y="170" fill="#1f2430" font-size="15" font-weight="700" text-anchor="middle" dominant-baseline="central">6</text><circle cx="88" cy="108" r="18" fill="#d6efea" stroke="#0f766e" stroke-width="2"/><text x="88" y="108" fill="#1f2430" font-size="15" font-weight="700" text-anchor="middle" dominant-baseline="central">5</text><circle cx="136" cy="232" r="18" fill="#fff" stroke="#1f2430" stroke-width="2"/><text x="136" y="232" fill="#1f2430" font-size="15" font-weight="700" text-anchor="middle" dominant-baseline="central">7</text><circle cx="184" cy="170" r="18" fill="#fff" stroke="#1f2430" stroke-width="2"/><text x="184" y="170" fill="#1f2430" font-size="15" font-weight="700" text-anchor="middle" dominant-baseline="central">2</text><circle cx="232" cy="232" r="18" fill="#fff" stroke="#1f2430" stroke-width="2"/><text x="232" y="232" fill="#1f2430" font-size="15" font-weight="700" text-anchor="middle" dominant-baseline="central">4</text><circle cx="280" cy="46" r="18" fill="#fbe3cf" stroke="#b45309" stroke-width="2"/><text x="280" y="46" fill="#1f2430" font-size="15" font-weight="700" text-anchor="middle" dominant-baseline="central">3</text><circle cx="328" cy="170" r="18" fill="#fff" stroke="#1f2430" stroke-width="2"/><text x="328" y="170" fill="#1f2430" font-size="15" font-weight="700" text-anchor="middle" dominant-baseline="central">0</text><circle cx="376" cy="108" r="18" fill="#d6efea" stroke="#0f766e" stroke-width="2"/><text x="376" y="108" fill="#1f2430" font-size="15" font-weight="700" text-anchor="middle" dominant-baseline="central">1</text><circle cx="424" cy="170" r="18" fill="#fff" stroke="#1f2430" stroke-width="2"/><text x="424" y="170" fill="#1f2430" font-size="15" font-weight="700" text-anchor="middle" dominant-baseline="central">8</text></g>
</svg>
