<svg xmlns="http://www.w3.org/2000/svg" viewBox="0 0 180 180" width="180" height="180" font-family="system-ui, -apple-system, 'Segoe UI', Roboto, sans-serif">
  <defs><marker id="arrow" viewBox="0 0 10 10" refX="8" refY="5" markerWidth="7" markerHeight="7" orient="auto-start-reverse"><path d="M0,0 L10,5 L0,10 z" fill="#0f766e"/></marker><marker id="arrowA" viewBox="0 0 10 10" refX="8" refY="5" markerWidth="7" markerHeight="7" orient="auto-start-reverse"><path d="M0,0 L10,5 L0,10 z" fill="#b45309"/></marker></defs>
  <rect x="18" y="18" width="48" height="48" fill="#fff" stroke="#b9b4a8" stroke-width="1.5"/>
  <rect x="66" y="18" width="48" height="48" fill="#fff" stroke="#b9b4a8" stroke-width="1.5"/>
  <rect x="114" y="18" width="48" height="48" fill="#fff" stroke="#b9b4a8" stroke-width="1.5"/>
  <rect x="18" y="66" width="48" height="48" fill="#fff" stroke="#b9b4a8" stroke-width="1.5"/>
  <rect x="66" y="66" width="48" height="48" fill="#fff" stroke="#b9b4a8" stroke-width="1.5"/>
  <rect x="114" y="66" width="48" height="48" fill="#fff" stroke="#b9b4a8" stroke-width="1.5"/>
  <rect x="18" y="114" width="48" height="48" fill="#fff" stroke="#b9b4a8" stroke-width="1.5"/>
  <rect x="66" y="114" width="48" height="48" fill="#fff" stroke="#b9b4a8" stroke-width="1.5"/>
  <rect x="114" y="114" width="48" height="48" fill="#fff" stroke="#b9b4a8" stroke-width="1.5"/>
  <circle cx="42" cy="42" r="5" fill="#b45309"/>
  <polyline points="42,42 90,42 138,42 138,90 138,138 90,138 42,138 42,90 90,90" fill="none" stroke="#b45309" stroke-width="2.5" stroke-linejoin="round" opacity="0.9" marker-end="url(#arrowA)"/>
  <text x="42" y="42" fill="#1f2430" stroke="#fff" stroke-width="3" paint-order="stroke" font-size="18" text-anchor="middle" dominant-baseline="central">1</text>
  <text x="90" y="42" fill="#1f2430" stroke="#fff" stroke-width="3" paint-order="stroke" font-size="18" text-anchor="middle" dominant-baseline="central">2</text>
  <text x="138" y="42" fill="#1f2430" stroke="#fff" stroke-width="3" paint-order="stroke" font-size="18" text-anchor="middle" dominant-baseline="central">3</text>
  <text x="42" y="90" fill="#1f2430" stroke="#fff" stroke-width="3" paint-order="stroke" font-size="18" text-anchor="middle" dominant-baseline="central">4</text>
  <text x="90" y="90" fill="#1f2430" stroke="#fff" stroke-width="3" paint-order="stroke" font-size="18" text-anchor="middle" dominant-baseline="central">5</text>
  <text x="138" y="90" fill="#1f2430" stroke="#fff" stroke-width="3" paint-order="stroke" font-size="18" text-anchor="middle" dominant-baseline="central">6</text>
  <text x="42" y="138" fill="#1f2430" stroke="#fff" stroke-width="3" paint-order="stroke" font-size="18" text-anchor="middle" dominant-baseline="central">7</text>
  <text x="90" y="138" fill="#1f2430" stroke="#fff" stroke-width="3" paint-order="stroke" font-size="18" text-anchor="middle" dominant-baseline="central">8</text>
  <text x="138" y="138" fill="#1f2430" stroke="#fff" stroke-width="3" paint-order="stroke" font-size="18" text-anchor="middle" dominant-baseline="central">9</text>
</svg>
