<svg xmlns="http://www.w3.org/2000/svg" viewBox="0 0 354 186" width="354" height="186" font-family="system-ui, -apple-system, 'Segoe UI', Roboto, sans-serif">
  <defs><marker id="arrow" viewBox="0 0 10 10" refX="8" refY="5" markerWidth="7" markerHeight="7" orient="auto-start-reverse"><path d="M0,0 L10,5 L0,10 z" fill="#0f766e"/></marker><marker id="arrowA" viewBox="0 0 10 10" refX="8" refY="5" markerWidth="7" markerHeight="7" orient="auto-start-reverse"><path d="M0,0 L10,5 L0,10 z" fill="#b45309"/></marker></defs>
  <text x="177" y="22" fill="#6b7280" font-size="13" font-weight="600" text-anchor="middle">3 × 7 grid — move right or down</text>
  <rect x="16" y="32" width="46" height="46" fill="#fff" stroke="#b9b4a8" stroke-width="1.5"/>
  <rect x="62" y="32" width="46" height="46" fill="#fff" stroke="#b9b4a8" stroke-width="1.5"/>
  <rect x="108" y="32" width="46" height="46" fill="#fff" stroke="#b9b4a8" stroke-width="1.5"/>
  <rect x="154" y="32" width="46" height="46" fill="#fff" stroke="#b9b4a8" stroke-width="1.5"/>
  <rect x="200" y="32" width="46" height="46" fill="#fff" stroke="#b9b4a8" stroke-width="1.5"/>
  <rect x="246" y="32" width="46" height="46" fill="#fff" stroke="#b9b4a8" stroke-width="1.5"/>
  <rect x="292" y="32" width="46" height="46" fill="#fff" stroke="#b9b4a8" stroke-width="1.5"/>
  <rect x="16" y="78" width="46" height="46" fill="#fff" stroke="#b9b4a8" stroke-width="1.5"/>
  <rect x="62" y="78" width="46" height="46" fill="#fff" stroke="#b9b4a8" stroke-width="1.5"/>
  <rect x="108" y="78" width="46" height="46" fill="#fff" stroke="#b9b4a8" stroke-width="1.5"/>
  <rect x="154" y="78" width="46" height="46" fill="#fff" stroke="#b9b4a8" stroke-width="1.5"/>
  <rect x="200" y="78" width="46" height="46" fill="#fff" stroke="#b9b4a8" stroke-width="1.5"/>
  <rect x="246" y="78" width="46" height="46" fill="#fff" stroke="#b9b4a8" stroke-width="1.5"/>
  <rect x="292" y="78" width="46" height="46" fill="#fff" stroke="#b9b4a8" stroke-width="1.5"/>
  <rect x="16" y="124" width="46" height="46" fill="#fff" stroke="#b9b4a8" stroke-width="1.5"/>
  <rect x="62" y="124" width="46" height="46" fill="#fff" stroke="#b9b4a8" stroke-width="1.5"/>
  <rect x="108" y="124" width="46" height="46" fill="#fff" stroke="#b9b4a8" stroke-width="1.5"/>
  <rect x="154" y="124" width="46" height="46" fill="#fff" stroke="#b9b4a8" stroke-width="1.5"/>
  <rect x="200" y="124" width="46" height="46" fill="#fff" stroke="#b9b4a8" stroke-width="1.5"/>
  <rect x="246" y="124" width="46" height="46" fill="#fff" stroke="#b9b4a8" stroke-width="1.5"/>
  <rect x="292" y="124" width="46" height="46" fill="#fff" stroke="#b9b4a8" stroke-width="1.5"/>
  <rect x="16" y="32" width="46" height="46" fill="#0f766e" opacity="0.16" stroke="#0f766e" stroke-width="2"/>
  <text x="39" y="59" fill="#0f766e" font-size="11" font-weight="700" text-anchor="middle">Start</text>
  <rect x="292" y="124" width="46" height="46" fill="#b45309" opacity="0.16" stroke="#b45309" stroke-width="2"/>
  <text x="315" y="151" fill="#b45309" font-size="11" font-weight="700" text-anchor="middle">Finish</text>
  <polyline points="39,55 85,55 131,55 177,55 223,55 269,55 315,55 315,101 315,147" fill="none" stroke="#0f766e" stroke-width="2.5" stroke-dasharray="5 4" marker-end="url(#arrow)"/>
</svg>
